<svg width="19" height="19" viewBox="0 0 19 19" fill="none" xmlns="http://www.w3.org/2000/svg">
<path d="M10.0526 18.8205H1.03875C0.464894 18.8205 0 18.3553 0 17.7817V1.03874C0 0.464963 0.464967 0 1.03875 0H17.7818C18.3554 0 18.8205 0.464963 18.8205 1.03874V17.7817C18.8205 18.3554 18.3554 18.8205 17.7818 18.8205H12.9858V11.5321H15.4322L15.7985 8.69176H12.9858V6.87835C12.9858 6.05599 13.2142 5.49558 14.3935 5.49558L15.8975 5.49492V2.95446C15.6374 2.91984 14.7446 2.84251 13.7058 2.84251C11.5373 2.84251 10.0526 4.16619 10.0526 6.59705V8.69176H7.59999V11.5321H10.0526V18.8205Z" fill="#F1941B"/>
</svg>
