<svg width="19" height="19" viewBox="0 0 19 19" fill="none" xmlns="http://www.w3.org/2000/svg">
<path d="M9.41016 0C11.9658 0 12.2864 0.0108453 13.29 0.0566406C14.2916 0.102323 14.9757 0.261507 15.5742 0.494141C16.193 0.734576 16.7181 1.056 17.2412 1.5791C17.7643 2.10224 18.0857 2.62736 18.3262 3.24609C18.5588 3.84463 18.718 4.52874 18.7637 5.53027C18.8095 6.53396 18.8203 6.85456 18.8203 9.41016C18.8203 11.9658 18.8095 12.2863 18.7637 13.29C18.718 14.2916 18.5588 14.9757 18.3262 15.5742C18.0857 16.193 17.7643 16.718 17.2412 17.2412C16.718 17.7643 16.193 18.0857 15.5742 18.3262C14.9757 18.5588 14.2916 18.718 13.29 18.7637C12.2863 18.8095 11.9658 18.8203 9.41016 18.8203C6.85456 18.8203 6.53396 18.8095 5.53027 18.7637C4.52874 18.718 3.84463 18.5588 3.24609 18.3262C2.62736 18.0857 2.10224 17.7643 1.5791 17.2412C1.056 16.7181 0.734576 16.193 0.494141 15.5742C0.261507 14.9757 0.102323 14.2916 0.0566406 13.29C0.0108453 12.2864 0 11.9658 0 9.41016C2.67785e-07 6.85456 0.0108451 6.53396 0.0566406 5.53027C0.102332 4.52874 0.26151 3.84463 0.494141 3.24609C0.734584 2.62733 1.05599 2.10225 1.5791 1.5791C2.10225 1.05599 2.62733 0.734584 3.24609 0.494141C3.84463 0.26151 4.52874 0.102332 5.53027 0.0566406C6.53396 0.0108451 6.85456 2.67783e-07 9.41016 0ZM9.41016 1.69531C6.8975 1.69531 6.59969 1.70473 5.60742 1.75C4.69018 1.79184 4.19192 1.94537 3.86035 2.07422C3.42113 2.24492 3.10757 2.44905 2.77832 2.77832C2.44901 3.1076 2.24493 3.42111 2.07422 3.86035C1.94536 4.19191 1.79185 4.69013 1.75 5.60742C1.70473 6.59968 1.69531 6.89762 1.69531 9.41016C1.69531 11.9228 1.70473 12.2206 1.75 13.2129C1.79183 14.1302 1.94537 14.6284 2.07422 14.96C2.24492 15.3992 2.44907 15.7127 2.77832 16.042C3.1076 16.3713 3.42111 16.5754 3.86035 16.7461C4.19192 16.875 4.69012 17.0285 5.60742 17.0703C6.59958 17.1156 6.89732 17.125 9.41016 17.125C11.923 17.125 12.2208 17.1156 13.2129 17.0703C14.1302 17.0285 14.6284 16.875 14.96 16.7461C15.3992 16.5754 15.7127 16.3713 16.042 16.042C16.3713 15.7127 16.5754 15.3992 16.7461 14.96C16.8749 14.6284 17.0285 14.1301 17.0703 13.2129C17.1156 12.2206 17.125 11.9228 17.125 9.41016C17.125 6.89762 17.1156 6.59968 17.0703 5.60742C17.0285 4.69014 16.875 4.19191 16.7461 3.86035C16.5754 3.42111 16.3713 3.1076 16.042 2.77832C15.7127 2.44903 15.3992 2.24492 14.96 2.07422C14.6284 1.94537 14.1301 1.79184 13.2129 1.75C12.2206 1.70473 11.9228 1.69531 9.41016 1.69531ZM9.41016 4.57812C12.0789 4.57812 14.2421 6.74142 14.2422 9.41016C14.2422 12.0789 12.0789 14.2422 9.41016 14.2422C6.74136 14.2421 4.57812 12.0789 4.57812 9.41016C4.57824 6.74145 6.74143 4.57817 9.41016 4.57812ZM9.41016 6.27344C7.67783 6.27346 6.27353 7.67784 6.27344 9.41016C6.27344 11.1425 7.67777 12.5469 9.41016 12.5469C11.1425 12.5469 12.5469 11.1425 12.5469 9.41016C12.5468 7.67783 11.1425 6.27344 9.41016 6.27344ZM14.4336 3.25781C15.057 3.25793 15.5623 3.76328 15.5625 4.38672C15.5625 5.01031 15.0572 5.51649 14.4336 5.5166C13.81 5.5166 13.3037 5.01038 13.3037 4.38672C13.3039 3.76321 13.8101 3.25781 14.4336 3.25781Z" fill="#F1941B"/>
</svg>
