<svg width="19" height="17" viewBox="0 0 19 17" fill="none" xmlns="http://www.w3.org/2000/svg">
<path d="M4.14258 16.7295H0.474609V5.36426H4.14258V16.7295ZM14.165 5.25586C16.7721 5.25586 18.8203 6.89015 18.8203 10.4102V16.7295H14.6611V10.8486C14.6611 9.30928 14.0099 8.25781 12.5791 8.25781C11.485 8.25795 10.8761 8.96706 10.5928 9.65039C10.4866 9.89562 10.5039 10.2375 10.5039 10.5791V16.7295H6.38281C6.38281 16.7295 6.43593 6.31122 6.38281 5.36426H10.5039V7.14844C10.7474 6.3686 12.0637 5.25589 14.165 5.25586ZM2.24121 0C3.5942 0.000173861 4.42645 0.848392 4.45312 1.96973C4.45312 3.07082 3.59432 3.94316 2.21582 3.94336H2.18848C0.86095 3.94322 0.000228377 3.07456 0 1.97363C0 0.85099 0.886775 0 2.24121 0Z" fill="#F1941B"/>
</svg>
