<svg width="20" height="15" viewBox="0 0 20 15" fill="none" xmlns="http://www.w3.org/2000/svg">
<path d="M5.67522 14.254C4.94953 14.254 4.33242 13.9999 3.82387 13.4919C3.31516 12.9836 3.0608 12.3666 3.0608 11.6407H1.68482C1.48289 11.6407 1.31358 11.5724 1.1769 11.4357C1.04038 11.299 0.972121 11.1297 0.972121 10.9278C0.972121 10.7257 1.04038 10.5565 1.1769 10.4201C1.31358 10.2836 1.48289 10.2153 1.68482 10.2153H3.55066C3.77113 9.85345 4.06808 9.56505 4.44154 9.35013C4.81483 9.13505 5.22567 9.02752 5.67403 9.02752C6.1224 9.02752 6.53331 9.13505 6.90676 9.35013C7.28006 9.56505 7.57702 9.85345 7.79764 10.2153H11.975L14.0164 1.4254H4.46791C4.26598 1.4254 4.09675 1.35706 3.96023 1.22038C3.82355 1.0837 3.75521 0.914392 3.75521 0.712461C3.75521 0.510371 3.82355 0.341145 3.96023 0.204782C4.09675 0.0682606 4.26598 0 4.46791 0H14.7198C15 0 15.226 0.108171 15.3979 0.324515C15.5695 0.5407 15.6219 0.784048 15.5549 1.05456L14.9738 3.56349H16.4923C16.7644 3.56349 17.0221 3.62431 17.2654 3.74594C17.5088 3.86774 17.7092 4.03593 17.8666 4.25053L19.6118 6.56609C19.7678 6.76945 19.868 6.98658 19.9123 7.2175C19.9568 7.44826 19.9584 7.68614 19.9171 7.93115L19.3122 10.9537C19.2707 11.1571 19.1703 11.3224 19.011 11.4497C18.8517 11.5771 18.6706 11.6407 18.4679 11.6407H17.6802C17.6802 12.3656 17.4262 12.9824 16.9183 13.4909C16.4104 13.9996 15.7936 14.254 15.0681 14.254C14.3426 14.254 13.7255 13.9999 13.2168 13.4919C12.7082 12.9836 12.4539 12.3666 12.4539 11.6407H8.28726C8.28726 12.3656 8.0333 12.9824 7.52539 13.4909C7.01747 13.9996 6.40075 14.254 5.67522 14.254ZM13.8993 8.19603H18.4021L18.5337 7.52348L16.6387 4.98889H14.6467L13.8993 8.19603ZM12.114 9.65612L12.253 9.03607C12.3454 8.6227 12.463 8.11669 12.6055 7.51802C12.6652 7.26953 12.7203 7.03988 12.7708 6.82908C12.8214 6.61828 12.8625 6.42886 12.8941 6.26082L13.0331 5.64077C13.1258 5.22741 13.2434 4.72139 13.3859 4.12272C13.5283 3.52406 13.6458 3.01804 13.7385 2.60468L13.8774 1.98463L14.0164 1.4254L11.975 10.2153L12.114 9.65612ZM0.703434 8.23072C0.504036 8.23072 0.336948 8.16238 0.202169 8.0257C0.0673896 7.88902 0 7.71971 0 7.51778C0 7.31569 0.0682607 7.14647 0.204782 7.0101C0.341303 6.87358 0.51053 6.80532 0.712461 6.80532H4.02936C4.23129 6.80532 4.40052 6.87366 4.53704 7.01034C4.67372 7.14702 4.74206 7.31641 4.74206 7.5185C4.74206 7.72043 4.67372 7.88965 4.53704 8.02617C4.40052 8.16254 4.23129 8.23072 4.02936 8.23072H0.703434ZM2.60396 4.83542C2.40203 4.83542 2.23281 4.76708 2.09628 4.6304C1.9596 4.49372 1.89126 4.32442 1.89126 4.12249C1.89126 3.9204 1.9596 3.75109 2.09628 3.61457C2.23281 3.47821 2.40203 3.41002 2.60396 3.41002H6.88016C7.08209 3.41002 7.25131 3.47836 7.38784 3.61504C7.52451 3.75172 7.59285 3.92103 7.59285 4.12296C7.59285 4.32505 7.52451 4.49428 7.38784 4.63064C7.25131 4.76716 7.08209 4.83542 6.88016 4.83542H2.60396ZM5.67403 12.8286C6.00425 12.8286 6.28474 12.7131 6.51549 12.4822C6.74641 12.2514 6.86186 11.971 6.86186 11.6407C6.86186 11.3105 6.74641 11.03 6.51549 10.7993C6.28474 10.5684 6.00425 10.4529 5.67403 10.4529C5.34381 10.4529 5.06333 10.5684 4.83257 10.7993C4.60166 11.03 4.4862 11.3105 4.4862 11.6407C4.4862 11.971 4.60166 12.2514 4.83257 12.4822C5.06333 12.7131 5.34381 12.8286 5.67403 12.8286ZM15.0672 12.8286C15.3972 12.8286 15.6777 12.7131 15.9086 12.4822C16.1395 12.2514 16.255 11.971 16.255 11.6407C16.255 11.3105 16.1395 11.03 15.9086 10.7993C15.6777 10.5684 15.3972 10.4529 15.0672 10.4529C14.7369 10.4529 14.4564 10.5684 14.2255 10.7993C13.9946 11.03 13.8791 11.3105 13.8791 11.6407C13.8791 11.971 13.9946 12.2514 14.2255 12.4822C14.4564 12.7131 14.7369 12.8286 15.0672 12.8286Z" fill="white"/>
</svg>
