<svg width="19" height="19" viewBox="0 0 19 19" fill="none" xmlns="http://www.w3.org/2000/svg">
<path fill-rule="evenodd" clip-rule="evenodd" d="M16.9423 12.8084L14.2865 12.5052C13.6487 12.432 13.0213 12.6515 12.5717 13.1011L10.6479 15.025C7.68886 13.5194 5.26311 11.1041 3.75748 8.13462L5.6918 6.2003C6.1414 5.7507 6.36098 5.12335 6.28778 4.48554L5.98457 1.85068C5.8591 0.794642 4.97035 0 3.90386 0H2.095C0.913497 0 -0.0693498 0.982846 0.00384092 2.16435C0.557999 11.0936 7.69932 18.2245 16.6181 18.7786C17.7996 18.8518 18.7825 17.869 18.7825 16.6875V14.8786C18.7929 13.8226 17.9983 12.9338 16.9423 12.8084Z" fill="#F1941B"/>
</svg>
