<svg width="15" height="21" viewBox="0 0 15 21" fill="none" xmlns="http://www.w3.org/2000/svg">
<path fill-rule="evenodd" clip-rule="evenodd" d="M0 7.31907C0 3.27267 3.27267 0 7.31907 0C11.3655 0 14.6381 3.27267 14.6381 7.31907C14.6381 11.6791 10.0167 17.6912 8.12417 19.9811C7.70594 20.4829 6.94266 20.4829 6.52443 19.9811C4.62147 17.6912 0 11.6791 0 7.31907ZM4.70514 7.31898C4.70514 8.76188 5.87619 9.93294 7.3191 9.93294C8.762 9.93294 9.93305 8.76188 9.93305 7.31898C9.93305 5.87608 8.762 4.70503 7.3191 4.70503C5.87619 4.70503 4.70514 5.87608 4.70514 7.31898Z" fill="#F1941B"/>
</svg>
