<svg width="18" height="18" viewBox="0 0 18 18" fill="none" xmlns="http://www.w3.org/2000/svg">
<path fill-rule="evenodd" clip-rule="evenodd" d="M0 9C0 4.02944 4.02944 0 9 0C13.9706 0 18 4.02944 18 9C18 13.9706 13.9706 18 9 18C4.02944 18 0 13.9706 0 9ZM9.64286 3.85714C9.64286 3.50211 9.35503 3.21429 9 3.21429C8.64497 3.21429 8.35714 3.50211 8.35714 3.85714V9C8.35714 9.17049 8.42486 9.33403 8.54546 9.45454L10.7955 11.7045C11.0465 11.9556 11.4535 11.9556 11.7045 11.7045C11.9556 11.4535 11.9556 11.0465 11.7045 10.7955L9.64286 8.73369V3.85714Z" fill="#F1941B"/>
</svg>
