<svg width="19" height="16" viewBox="0 0 19 16" fill="none" xmlns="http://www.w3.org/2000/svg">
<path d="M18.8205 1.85667C18.1289 2.17159 17.3844 2.38456 16.6034 2.47972C17.4009 1.99034 18.0129 1.21437 18.3013 0.289999C17.5545 0.743122 16.7293 1.07277 15.8478 1.24949C15.1452 0.48031 14.141 0 13.0297 0C10.8988 0 9.16996 1.77284 9.16996 3.95916C9.16996 4.26955 9.2031 4.57088 9.26939 4.86088C6.06028 4.69549 3.21573 3.12088 1.31015 0.722731C0.977643 1.30953 0.787638 1.99034 0.787638 2.71534C0.787638 4.0883 1.46923 5.30041 2.50542 6.01068C1.87354 5.99142 1.27701 5.8113 0.755602 5.51677V5.56548C0.755602 7.48446 2.08674 9.08512 3.85423 9.44761C3.53056 9.54051 3.18922 9.58695 2.83682 9.58695C2.58827 9.58695 2.34524 9.56316 2.10994 9.51672C2.60153 11.0891 4.02657 12.2343 5.71673 12.2649C4.39553 13.3275 2.72967 13.9607 0.921304 13.9607C0.609784 13.9607 0.301578 13.9426 0 13.9063C1.70894 15.0278 3.73935 15.6837 5.91889 15.6837C13.022 15.6837 16.9049 9.65152 16.9049 4.41908C16.9049 4.2469 16.9016 4.07471 16.895 3.90592C17.6495 3.34745 18.3046 2.65077 18.8205 1.85667Z" fill="#F1941B"/>
</svg>
