<svg width="18" height="20" viewBox="0 0 18 20" fill="none" xmlns="http://www.w3.org/2000/svg">
<path d="M2.1693 20C1.5727 20 1.062 19.7846 0.6372 19.3537C0.2124 18.9229 0 18.4049 0 17.7998V7.40777C0 7.05948 0.0767998 6.72955 0.2304 6.41798C0.3842 6.1062 0.5966 5.8495 0.8676 5.64787L7.6986 0.440278C8.0776 0.146759 8.5108 0 8.9982 0C9.4856 0 9.92 0.146759 10.3014 0.440278L17.1324 5.64787C17.4034 5.8495 17.6158 6.1062 17.7696 6.41798C17.9232 6.72955 18 7.05948 18 7.40777V17.7998C18 18.4049 17.7876 18.9229 17.3628 19.3537C16.938 19.7846 16.4273 20 15.8307 20H2.1693ZM2.1693 18.1744H15.8307C15.9385 18.1744 16.027 18.1393 16.0962 18.0691C16.1654 17.9989 16.2 17.9092 16.2 17.7998V7.40777C16.2 7.34549 16.1865 7.289 16.1595 7.23829C16.1327 7.18758 16.0962 7.14265 16.05 7.1035L9.2193 1.90778C9.1577 1.85301 9.0846 1.82562 9 1.82562C8.9154 1.82562 8.8423 1.85301 8.7807 1.90778L1.95 7.1035C1.9038 7.14265 1.8673 7.18758 1.8405 7.23829C1.8135 7.289 1.8 7.34549 1.8 7.40777V17.7998C1.8 17.9092 1.8346 17.9989 1.9038 18.0691C1.973 18.1393 2.0615 18.1744 2.1693 18.1744ZM7.3386 16.5593C7.4908 16.5593 7.6211 16.5043 7.7295 16.3944C7.8381 16.2845 7.8924 16.1522 7.8924 15.9976V12.0655C8.3538 12.0655 8.7461 11.9017 9.0693 11.5741C9.3923 11.2463 9.5538 10.8485 9.5538 10.3805V7.57177C9.5538 7.4172 9.4996 7.28494 9.3912 7.175C9.2828 7.06506 9.1524 7.01009 9 7.01009C8.8476 7.01009 8.7172 7.06506 8.6088 7.175C8.5004 7.28494 8.4462 7.4172 8.4462 7.57177V10.3805H7.8924V7.57177C7.8924 7.4172 7.8381 7.28494 7.7295 7.175C7.6211 7.06506 7.4908 7.01009 7.3386 7.01009C7.1862 7.01009 7.0558 7.06506 6.9474 7.175C6.8388 7.28494 6.7845 7.4172 6.7845 7.57177V10.3805H6.2307V7.57177C6.2307 7.4172 6.1765 7.28494 6.0681 7.175C5.9597 7.06506 5.8293 7.01009 5.6769 7.01009C5.5247 7.01009 5.3943 7.06506 5.2857 7.175C5.1773 7.28494 5.1231 7.4172 5.1231 7.57177V10.3805C5.1231 10.8485 5.2846 11.2463 5.6076 11.5741C5.9308 11.9017 6.3231 12.0655 6.7845 12.0655V15.9976C6.7845 16.1522 6.8388 16.2845 6.9474 16.3944C7.0558 16.5043 7.1862 16.5593 7.3386 16.5593ZM11.7693 16.5593C11.9215 16.5593 12.0519 16.5043 12.1605 16.3944C12.2689 16.2845 12.3231 16.1522 12.3231 15.9976V7.74034C12.3231 7.53424 12.2535 7.36101 12.1143 7.22064C11.9753 7.08027 11.8038 7.01009 11.5998 7.01009C11.0988 7.01009 10.7249 7.24407 10.4781 7.71204C10.2311 8.18021 10.1076 8.69514 10.1076 9.25682V11.5252C10.1076 11.8276 10.2295 12.0526 10.4733 12.2C10.7173 12.3475 10.957 12.4899 11.1924 12.6272H11.2155V15.9976C11.2155 16.1522 11.2697 16.2845 11.3781 16.3944C11.4865 16.5043 11.6169 16.5593 11.7693 16.5593Z" fill="white"/>
</svg>
