<svg width="15" height="17" viewBox="0 0 15 17" fill="none" xmlns="http://www.w3.org/2000/svg">
<path d="M7.69505 3.76703H5.91927C5.75156 3.76703 5.61101 3.70683 5.49762 3.58643C5.3841 3.46602 5.32734 3.31687 5.32734 3.13899C5.32734 2.96096 5.3841 2.81188 5.49762 2.69176C5.61101 2.57149 5.75156 2.51136 5.91927 2.51136H7.69505V0.627839C7.69505 0.449951 7.75181 0.300875 7.86533 0.180608C7.97885 0.0602029 8.11946 0 8.28717 0C8.45502 0 8.59557 0.0602029 8.70882 0.180608C8.82221 0.300875 8.8789 0.449951 8.8789 0.627839V2.51136H10.6547C10.8224 2.51136 10.9629 2.57156 11.0763 2.69197C11.1899 2.81237 11.2466 2.96152 11.2466 3.13941C11.2466 3.31743 11.1899 3.46651 11.0763 3.58664C10.9629 3.7069 10.8224 3.76703 10.6547 3.76703H8.8789V5.65055C8.8789 5.82844 8.82214 5.97752 8.70863 6.09778C8.59511 6.21819 8.45449 6.27839 8.28678 6.27839C8.11894 6.27839 7.97839 6.21819 7.86513 6.09778C7.75174 5.97752 7.69505 5.82844 7.69505 5.65055V3.76703ZM4.46214 17C4.07871 17 3.75269 16.8575 3.48408 16.5724C3.21548 16.2875 3.08118 15.9417 3.08118 15.535C3.08118 15.1282 3.21548 14.7823 3.48408 14.4974C3.75269 14.2125 4.07871 14.0701 4.46214 14.0701C4.84571 14.0701 5.1718 14.2125 5.4404 14.4974C5.709 14.7823 5.84331 15.1282 5.84331 15.535C5.84331 15.9417 5.709 16.2875 5.4404 16.5724C5.1718 16.8575 4.84571 17 4.46214 17ZM12.1118 17C11.7282 17 11.4022 16.8575 11.1336 16.5724C10.865 16.2875 10.7306 15.9417 10.7306 15.535C10.7306 15.1282 10.865 14.7823 11.1336 14.4974C11.4022 14.2125 11.7282 14.0701 12.1118 14.0701C12.4952 14.0701 12.8213 14.2125 13.0899 14.4974C13.3585 14.7823 13.4928 15.1282 13.4928 15.535C13.4928 15.9417 13.3585 16.2875 13.0899 16.5724C12.8213 16.8575 12.4952 17 12.1118 17ZM1.50271 2.0928H0.591927C0.424214 2.0928 0.283664 2.03259 0.170278 1.91219C0.0567592 1.79178 0 1.64264 0 1.46475C0 1.28672 0.0567592 1.13764 0.170278 1.01752C0.283664 0.897252 0.424214 0.837119 0.591927 0.837119H1.80952C1.94487 0.837119 2.07122 0.87479 2.18855 0.95013C2.30602 1.02547 2.39408 1.13213 2.45275 1.27012L5.55188 8.21025H10.9325C10.978 8.21025 11.0185 8.19818 11.0538 8.17405C11.0892 8.14991 11.1196 8.11636 11.145 8.07338L13.8996 2.82528C13.9503 2.72329 14.0199 2.6455 14.1084 2.59193C14.197 2.53821 14.2955 2.51136 14.4038 2.51136C14.6303 2.51136 14.8001 2.61383 14.9134 2.81879C15.0268 3.02374 15.0288 3.23086 14.9195 3.44014L12.1815 8.69955C12.052 8.94106 11.8807 9.12913 11.6675 9.26377C11.4542 9.39854 11.2209 9.46593 10.9674 9.46593H5.20896L4.29522 11.2366C4.2547 11.3011 4.25346 11.3709 4.29147 11.4459C4.32935 11.5211 4.38624 11.5587 4.46214 11.5587H12.901C13.0688 11.5587 13.2093 11.6189 13.3227 11.7393C13.4361 11.8597 13.4928 12.0089 13.4928 12.1868C13.4928 12.3648 13.4361 12.5139 13.3227 12.634C13.2093 12.7543 13.0688 12.8144 12.901 12.8144H4.46214C3.93599 12.8144 3.5386 12.5758 3.27 12.0987C3.0014 11.6217 2.9941 11.139 3.2481 10.6507L4.37414 8.50324L1.50271 2.0928Z" fill="white"/>
</svg>
