<svg width="19" height="14" viewBox="0 0 19 14" fill="none" xmlns="http://www.w3.org/2000/svg">
<path d="M9.41406 0C9.41406 0 13.3653 -0.000359558 15.999 0.195312C16.3667 0.23995 17.1684 0.244296 17.8838 1.01367C18.4417 1.59371 18.6279 2.90325 18.6318 2.93164C18.6318 2.93164 18.8203 4.49608 18.8203 6.05957V7.52637C18.8203 9.09045 18.6318 10.6543 18.6318 10.6543C18.6278 10.6834 18.4415 11.9924 17.8838 12.5723C17.1684 13.3416 16.3668 13.3454 15.999 13.3906C13.3653 13.5863 9.41016 13.5928 9.41016 13.5928C9.3883 13.5926 4.51453 13.5466 3.01172 13.3984C2.59298 13.3181 1.65189 13.3422 0.935547 12.5723C0.377666 11.9922 0.192455 10.6828 0.188477 10.6543C0.188477 10.6543 1.95966e-05 9.09045 0 7.52637V6.05957C1.77153e-05 4.49608 0.188477 2.93164 0.188477 2.93164C0.192356 2.90388 0.377513 1.59385 0.935547 1.01367C1.65188 0.243746 2.4541 0.240001 2.82227 0.195312C5.45595 -0.000330076 9.40625 0 9.40625 0H9.41406ZM7.4668 9.30273L12.5518 6.59766L7.4668 3.87305V9.30273Z" fill="#F1941B"/>
</svg>
